PathFileType	4	(X/Y/Z)	C:/Users/beibeiliu/ov580/test_trc/capture2\sequence.6_training_dense_right.trc
DataRate	CameraRate	NumFrames	NumMarkers	Units	OrigDataRate	OrigDataStartFrame	OrigNumFrames
120	120	24	19	mm	120	177	353
Frame#	Time	ThumbCMC			ThumbMCP			ThumbIP			ThumbTip			IndexMCP			IndexPIP			IndexTip			MiddleMCP			MiddlePIP			MiddleTip			RingMCP			RingPIP			RingTip			PinkyMCP			PinkyPIP			PinkyTip			BackHand1			BackHand2			BackHand3	
		X0	Y0	Z0	X1	Y1	Z1	X2	Y2	Z2	X3	Y3	Z3	X4	Y4	Z4	X5	Y5	Z5	X6	Y6	Z6	X7	Y7	Z7	X8	Y8	Z8	X9	Y9	Z9	X10	Y10	Z10	X11	Y11	Z11	X12	Y12	Z12	X13	Y13	Z13	X14	Y14	Z14	X15	Y15	Z15	X16	Y16	Z16	X17	Y17	Z17	X18	Y18	Z18	
176	1.46667	114.254	2.9554	-28.6683	115.533	-10.6938	-59.8148	111.294	-14.6289	-88.9043	116.862	1.04657	-108.209	75.582	30.8179	-87.6215	70.5363	19.3216	-115.189	90.8423	0.9168	-130.02	103.095	30.1747	-103.074	123.419	6.73384	-107.556	134.083	8.3395	-72.7399	123.305	31.9543	-99.76	140.68	11.2455	-93.5207	139.743	18.6399	-57.0975	140.219	42.9042	-93.4664	155.913	21.406	-81.6177	147.256	27.4703	-51.1281	119.688	63.31	-52.0246	131.468	60.5342	-18.1314	104.103	39.3548	-27.7625	
177	1.475	111.639	1.99057	-27.3292	114.14	-12.8928	-59.1859	111.18	-9.0181	-88.2493	114.479	-2.829	-111.8	71.4768	29.8706	-86.5175	71.3179	24.4054	-117.778	86.7223	6.78809	-134.791	102.184	33.6421	-99.8821	121.072	5.69065	-106.441	130.367	8.04128	-69.4752	126.568	37.04	-99.3221	143.5	12.3491	-91.9281	138.502	18.1745	-57.6054	142.168	45.4929	-92.4241	151.014	19.9732	-82.7915	139.672	27.7121	-51.9895	119.054	63.8392	-46.762	131.028	62.5697	-17.8648	100.959	40.9728	-25.0889	
178	1.48333	109.659	5.91906	-26.5324	110.668	-9.57092	-61.1942	107.717	-13.5185	-88.1495	112.389	-0.929731	-111.181	72.8762	32.2301	-83.9068	67.6711	29.1736	-115.009	80.8069	11.1524	-139.014	101.163	33.2705	-99.3812	118.772	8.44907	-108.141	127.368	9.21875	-68.5299	123.745	33.5604	-99.0492	143.378	13.1292	-90.4266	138.274	19.2429	-57.3924	138.096	44.7077	-90.0528	149.121	19.1879	-80.425	141.902	27.3714	-49.7427	118.63	63.2971	-48.9001	129.408	64.0523	-19.9576	102.095	43.7032	-28.0019	
179	1.49167	104.215	7.60795	-29.2387	109.129	-6.69311	-58.2518	108.209	-9.40846	-83.2212	113.18	1.52047	-107.491	72.8422	38.8569	-90.3118	65.6018	30.1504	-115.927	77.8732	21.8029	-139.73	101.105	36.2878	-99.9045	120.964	12.2287	-108.755	128.69	9.64152	-71.7053	126.899	37.2152	-98.7908	138.451	10.5018	-87.5757	133.166	20.1719	-55.0942	139.1	40.2874	-90.4567	147.647	18.8875	-78.375	137.979	29.848	-47.3218	120.863	66.4488	-48.7772	130.716	64.3071	-18.2914	99.1635	46.2347	-27.0541	
180	1.5	102.98	10.7427	-28.3617	106.446	-7.99233	-55.8686	106.012	-7.78287	-85.8563	112.015	-1.34378	-110.311	75.9309	40.0871	-87.8677	68.9216	36.0342	-119.268	71.7275	24.8938	-144.372	103.439	35.3053	-102.208	119.343	9.6669	-106.18	126.856	9.68323	-69.6577	123.246	35.75	-96.2854	139.917	9.94738	-83.7389	133.025	18.3716	-54.7776	140.456	44.2406	-88.4824	148.108	17.9807	-74.8042	137.942	31.3038	-46.4201	120.402	69.6157	-52.9072	128.494	66.754	-16.5087	97.5593	49.5226	-27.3867	
181	1.50833	98.8509	12.2885	-30.9259	102.605	-5.58891	-58.8807	104.019	-9.03492	-84.0073	112.786	0.677517	-107.862	74.5249	41.0573	-91.1083	69.1181	37.9165	-121.06	71.5926	31.5612	-145.199	106.366	38.2728	-101.913	121.754	9.53353	-105.955	122.853	6.95947	-68.0216	129.487	37.9265	-97.082	140.676	10.1792	-83.5285	128.524	17.4866	-54.2728	144.724	39.9195	-89.4631	146.152	17.481	-71.8728	136.104	27.6874	-45.6943	118.468	67.4564	-49.6501	125.226	66.4425	-20.0884	98.7792	50.4034	-29.8983	
182	1.51667	94.2299	13.9519	-30.6341	100.611	-3.50341	-56.3386	101.33	-7.04973	-90.0732	113.662	2.45599	-110.999	74.1375	44.6622	-96.9513	71.6642	43.0292	-122.653	73.8612	38.9488	-146.865	106.608	38.3121	-102.276	123.451	11.308	-107.134	120.952	6.83661	-66.8373	127.055	37.273	-96.3481	139.404	8.47916	-82.6297	130.855	21.356	-51.9536	144.962	38.2152	-89.8479	144.415	16.9048	-71.0524	133.945	27.4416	-45.4661	119.502	70.7555	-55.0335	128.858	68.4189	-20.1301	94.5537	54.8882	-32.089	
183	1.525	94.4995	19.6259	-31.6701	98.1751	-0.540539	-59.4802	99.232	-6.43029	-87.2567	113.188	1.9498	-110.522	80.666	49.1138	-95.1697	72.8081	44.9555	-122.432	72.2788	43.0793	-147.372	112.084	39.4107	-103.812	124.579	8.42769	-104.194	123.24	10.0913	-66.6242	131.675	33.1779	-98.6803	137.153	7.83349	-80.106	127.679	19.7126	-52.2324	149.097	40.5414	-87.2502	147.332	16.1847	-69.4961	130.732	31.2356	-44.4943	122.841	72.1834	-54.6893	128.511	69.5512	-20.0057	94.6652	57.0033	-35.3683	
184	1.53333	90.0622	21.9705	-34.6205	96.0513	4.45056	-61.0388	98.6667	-2.91661	-88.5044	113.389	4.92815	-107.585	79.7059	50.6244	-99.499	76.7301	49.4416	-126.88	78.9761	48.6345	-150.252	113.532	38.7569	-106.159	125.274	11.5056	-105.498	121.503	9.64952	-65.087	131.433	35.9489	-96.0048	134.516	8.19325	-81.6321	127.925	21.4027	-50.9095	146.532	40.8193	-86.1834	149.494	15.7262	-68.3504	136.375	30.8965	-42.8975	123.8	71.3026	-54.3697	124.975	70.7335	-23.3957	96.7831	59.2425	-36.1134	
185	1.54167	90.6955	24.2784	-31.8392	92.1087	2.27285	-57.7126	98.1575	-0.145497	-85.1871	112.353	4.56167	-107.797	82.0527	53.144	-101.724	79.2711	51.7578	-124.721	84.1371	48.104	-155.543	110.41	37.0143	-107.402	123.787	8.85985	-102.128	120.392	9.09023	-68.1557	133.013	31.975	-97.1677	138.014	9.02545	-83.1863	124.556	19.0715	-51.6822	146.165	40.585	-85.748	145.004	14.6052	-68.2614	136.012	29.8856	-43.5001	124.6	71.8751	-56.6269	128.56	70.2122	-19.4675	95.8778	61.1087	-34.3778	
186	1.55	89.482	26.3065	-31.1173	90.399	5.15501	-59.5416	96.5161	2.5733	-88.1477	109.858	5.15013	-109.023	83.9483	54.8532	-98.9609	82.1706	51.9633	-128.574	89.0767	44.7934	-154.9	111.508	40.2705	-105.212	119.852	9.23617	-106.068	116.82	10.5297	-65.2995	134.982	32.8131	-97.6087	136.249	8.61056	-81.8243	124.059	19.5674	-52.1479	151.079	35.549	-87.4195	142.198	14.4592	-69.7139	131.559	28.3637	-44.6424	126.864	71.8417	-54.1016	130.265	72.7093	-21.5391	96.5551	64.3805	-40.2625	
187	1.55833	89.5581	28.9473	-31.5646	92.0029	9.93659	-61.0268	93.9442	1.35502	-86.7677	107.507	4.12081	-110.254	90.0874	59.4913	-99.6514	85.5104	54.5235	-132.773	96.8151	41.6007	-154.481	114.732	41.2925	-105.734	118.79	8.19639	-102.313	116.647	13.5824	-66.4931	133.809	32.7382	-98.313	132.747	8.679	-83.732	123.027	23.1656	-51.4951	151.603	33.3345	-87.5844	144.58	13.3996	-66.1926	131.326	32.4406	-42.4052	132.509	74.7391	-54.417	130.87	73.3982	-24.8808	98.9591	65.7162	-41.0391	
188	1.56667	90.1171	30.775	-32.7916	87.9176	8.27655	-60.439	93.3846	5.12584	-90.3665	106.656	5.974	-111.414	89.6349	61.9046	-102.277	92.7222	54.6618	-132.89	102.733	34.5524	-150.552	114.704	40.8849	-109.321	123.925	11.8497	-106.495	116.312	15.4631	-67.0466	132.909	34.2974	-97.847	134.509	7.69873	-83.1936	125.164	23.077	-51.7819	148.326	36.2646	-86.7438	140.665	13.0229	-68.736	128.634	32.6588	-44.3969	133.791	72.5194	-53.1326	130.666	73.2874	-25.9638	103.693	68.4142	-37.3549	
189	1.575	86.0762	29.5255	-36.7508	87.4847	10.4858	-64.5419	91.3859	4.28228	-93.8156	108.643	8.35021	-111.828	92.3689	60.3139	-100.083	93.3492	52.3008	-133.469	101.194	27.4606	-145.676	115.698	41.094	-109.307	118.152	7.84289	-104.135	114.143	12.3289	-69.3639	133.758	30.2976	-99.1759	130.385	6.55031	-83.0626	126.383	21.355	-53.1003	153.03	34.9171	-85.8563	138.878	12.3821	-69.0651	130.93	29.7962	-47.2034	135.939	72.1623	-54.0892	131.745	70.8087	-23.2067	100.952	65.9148	-39.1598	
190	1.58333	87.5485	31.1695	-33.4498	87.8564	12.1608	-64.504	90.8221	4.82518	-90.4749	109.292	8.4688	-113.283	93.5201	61.9107	-103.175	96.3506	52.2239	-132.895	104.066	21.6231	-142.34	117.642	42.837	-106.737	120.877	8.62549	-103.714	115.657	16.1206	-67.6727	134.171	28.8128	-98.9239	130.495	5.8314	-83.6726	123.361	23.2406	-52.1556	149.407	34.6312	-86.0851	139.726	9.98931	-70.2158	132.217	29.0231	-46.9146	138.712	69.6002	-56.8718	134.415	69.0355	-21.3513	101.636	67.0313	-39.9723	
191	1.59167	89.4984	35.1334	-39.6828	89.1168	14.5382	-61.2608	90.4737	6.08404	-94.4841	105.531	6.24348	-111.98	99.9737	64.1083	-106.947	99.946	53.7883	-133.476	103.399	25.576	-142.802	121.041	39.5407	-110.864	121.448	10.1733	-106.265	113.702	15.6754	-69.442	138.096	32.86	-98.6242	129.781	6.30523	-84.4809	121.659	21.8433	-55.2438	153.545	30.2403	-88.0202	142.626	8.7239	-68.4241	129.727	31.2917	-48.1957	137.099	71.7419	-56.6604	135.189	68.7427	-23.8182	108.35	68.3583	-44.1132	
192	1.6	88.2385	35.9157	-39.1055	85.2109	12.8024	-64.699	92.3089	9.23539	-92.766	106.17	6.58269	-111.987	97.2305	64.6435	-104.846	103.301	57.018	-131.754	105.295	24.7103	-145.207	122.049	40.4665	-110.42	118.567	9.90054	-105.003	112.012	15.3062	-69.3284	135.25	28.4878	-100.131	132.254	4.49697	-84.1137	120.007	23.1039	-54.9988	148.876	28.5549	-87.8552	139.641	7.78777	-68.2195	134.187	28.2154	-45.1062	140.667	68.4127	-56.6017	136.863	68.1986	-27.4078	107.532	69.4683	-39.3709	
193	1.60833	91.1284	37.613	-36.3484	86.9346	15.9288	-67.8504	89.5157	7.4021	-89.3379	106.381	6.71722	-112.808	100.33	65.496	-102.838	101.552	59.8274	-133.009	103.21	32.5286	-152.33	120.01	39.8813	-110.661	117.397	11.4778	-108.412	111.908	15.0168	-71.9058	138.602	31.9961	-98.4267	126.926	5.70414	-83.3485	120.706	23.723	-54.0609	155.393	27.417	-86.4011	139.384	7.28447	-65.9202	134.355	31.1781	-44.7416	145.848	69.4853	-60.0682	143.792	68.5281	-24.0625	110.924	70.3241	-39.9224	
194	1.61667	88.904	38.9415	-38.0806	85.0309	16.8612	-66.5012	89.4131	9.17209	-93.2996	106.366	7.08737	-110.664	105.584	66.5486	-107.561	103.815	61.1012	-134.89	110.076	43.9095	-155.962	123.853	38.7513	-112.035	120.619	8.79433	-105.372	113.803	14.9969	-69.8822	138.214	28.1012	-98.4018	130.141	3.99413	-82.9067	124.849	20.0487	-53.7107	149.121	24.3291	-87.4044	141.263	5.82928	-68.0267	131.335	27.1623	-47.3251	145.612	66.231	-60.0911	144.331	68.1276	-26.1357	112.519	71.8156	-43.7073	
195	1.625	92.5221	42.103	-40.9	88.1134	20.4962	-67.4261	90.9374	11.3491	-90.2988	109.084	9.23334	-109.084	106.896	66.4357	-108.494	104.533	63.9471	-134.506	106.42	52.8099	-161.696	121.606	39.7338	-111.408	116.958	9.14811	-105.264	116.205	13.8734	-70.2295	139.777	25.1563	-98.05	129.083	3.28087	-83.049	123.137	21.2598	-53.5029	151.327	21.5768	-87.4042	140.549	4.40224	-66.6909	130.057	30.0337	-45.917	145.315	64.7144	-56.7669	146.326	64.7129	-26.1567	116.854	70.4537	-42.2712	
196	1.63333	92.4163	44.0426	-39.595	87.5181	23.4189	-67.348	91.0582	14.0446	-90.4671	104.895	8.4964	-111.528	108.408	69.3644	-109.423	107.728	66.1932	-133.343	109.781	62.2604	-159.455	124.353	38.3376	-111.373	117.185	8.74188	-104.378	113.028	18.1605	-67.1242	137.341	27.3527	-98.6432	127.852	2.5603	-81.1097	124.166	21.2554	-52.5278	149.884	23.6216	-85.8041	135.932	6.25643	-63.7882	133.567	26.5431	-41.533	153.365	65.173	-59.125	149.079	63.5096	-22.8883	119.995	71.3671	-43.6564	
197	1.64167	92.6992	46.3482	-37.9337	84.8426	25.9273	-68.6774	88.0543	16.6221	-93.1349	103.521	9.74329	-107.87	111.321	69.0971	-106.779	111.67	67.4133	-135.185	117.168	64.3038	-156.054	124.514	42.6462	-108.283	115.617	11.5352	-107.459	112.794	18.7505	-66.7913	136.189	27.2522	-97.3854	125.365	3.35128	-79.0364	119.677	21.1926	-53.7564	154.375	20.2847	-84.9479	133.82	6.03868	-64.0017	131.245	28.4765	-45.6305	152.174	62.121	-58.6289	146.387	63.4126	-22.0484	118.906	74.8053	-43.4822	
198	1.65	93.7897	47.2634	-38.1193	84.7329	27.5194	-62.335	86.7857	17.8537	-91.0441	101.923	9.39589	-112.903	111.183	69.8333	-104.042	114.554	67	-132.928	116.34	67.611	-158.908	128.669	38.2095	-108.474	111.375	10.5967	-104.524	108.64	17.0636	-67.8727	138.634	24.6703	-95.5707	121.246	2.91859	-78.7399	117.757	20.4892	-54.6467	150.553	17.4227	-84.7951	132.53	4.32256	-62.7643	130.919	25.4747	-42.7898	152.898	59.7699	-55.3192	148.078	63.242	-26.3026	123.278	71.4738	-41.4815	
199	1.65833	94.4275	49.0509	-42.218	83.0651	28.1643	-68.5303	88.6724	19.0859	-93.1077	102.127	10.6062	-109.823	115.829	68.6908	-108.365	112.244	69.3006	-130.26	120	67.8741	-154.117	126.743	38.141	-109.628	111.888	11.8601	-105.903	110.871	18.5119	-66.8425	137.643	23.7611	-95.9281	118.2	4.9523	-80.4092	119.568	23.513	-51.4454	151.958	17.4723	-83.8618	129.7	4.19674	-63.4113	129.043	27.4355	-43.6877	156.168	58.6489	-58.2825	149.683	61.0972	-23.0431	120.637	75.2611	-42.6255	
